<svg xmlns="http://www.w3.org/2000/svg" xmlns:xlink="http://www.w3.org/1999/xlink" viewBox="0 0 444 328" width="444" height="328" preserveAspectRatio="xMidYMid meet" style="width: 100%; height: 100%; transform: translate3d(0px, 0px, 0px); content-visibility: visible;">
<defs>
<clipPath id="__lottie_element_2"><rect width="444" height="328" x="0" y="0">
</rect>
</clipPath><clipPath id="__lottie_element_4"><path d="M0,0 L444,0 L444,328 L0,328z">
</path>
 </clipPath><clipPath id="__lottie_element_5">
 <path fill="#ffffff" clip-rule="nonzero" d=" M268.97198486328125,40.99300003051758 C260.3070068359375,43.95000076293945 252.57200622558594,49.189998626708984 246.55799865722656,56.17499923706055 C237.91600036621094,66.08599853515625 233.58900451660156,77.98300170898438 231.65899658203125,90.88600158691406 C230.072998046875,102.4520034790039 230.072998046875,114.18499755859375 231.65899658203125,125.7509994506836 C232.78799438476562,134.68699645996094 232.2270050048828,143.75799560546875 230.0050048828125,152.47999572753906 C228.76199340820312,156.56199645996094 227.17599487304688,160.5290069580078 225.26300048828125,164.3350067138672 C225.06399536132812,164.7530059814453 225.0030059814453,165.22500610351562 225.08900451660156,165.68099975585938 C225.1750030517578,166.13800048828125 225.4029998779297,166.5540008544922 225.73899841308594,166.8679962158203 C226.0760040283203,167.18299865722656 226.5030059814453,167.3800048828125 226.95899963378906,167.42999267578125 C227.41400146484375,167.47900390625 227.8730010986328,167.3800048828125 228.26800537109375,167.14500427246094 C230.75599670410156,165.8209991455078 233.0709991455078,164.18600463867188 235.16000366210938,162.27999877929688 C235.16000366210938,162.27999877929688 236.6490020751953,160.8820037841797 236.6490020751953,160.8820037841797 C238.6540069580078,158.81100463867188 240.47500610351562,156.5659942626953 242.0919952392578,154.1719970703125 C243.8939971923828,151.4739990234375 245.54100036621094,148.67300415039062 247.02699279785156,145.78399658203125 C247.2969970703125,145.27699279785156 247.5570068359375,144.77099609375 247.81900024414062,144.26199340820312 C248.01199340820312,143.88600158691406 248.20599365234375,143.50799560546875 248.406005859375,143.1280059814453 C248.406005859375,143.1280059814453 248.5989990234375,142.70899963378906 248.5989990234375,142.70899963378906 C248.70899963378906,142.49899291992188 248.81900024414062,142.26100158691406 248.91600036621094,142.03799438476562 C249.0019989013672,141.87899780273438 249.0800018310547,141.71499633789062 249.14999389648438,141.54800415039062 C249.14999389648438,141.54800415039062 249.14999389648438,141.46400451660156 249.14999389648438,141.46400451660156 C249.14999389648438,141.46400451660156 249.24600219726562,141.2689971923828 249.24600219726562,141.2689971923828 C249.38400268554688,140.98899841308594 249.52200317382812,140.70899963378906 249.64599609375,140.41600036621094 C249.64599609375,140.41600036621094 249.81199645996094,140.052001953125 249.81199645996094,140.052001953125 C249.81199645996094,140.052001953125 251.19000244140625,137.10299682617188 251.19000244140625,137.10299682617188 C251.19000244140625,137.10299682617188 252.5679931640625,134.06900024414062 252.5679931640625,134.06900024414062 C252.5679931640625,134.06900024414062 253.1199951171875,132.7969970703125 253.1199951171875,132.7969970703125 C253.7259979248047,131.3990020751953 254.3470001220703,130.00100708007812 254.9810028076172,128.60299682617188 C254.9810028076172,128.60299682617188 255.18699645996094,128.1699981689453 255.18699645996094,128.1699981689453 C255.2830047607422,127.95999908447266 255.3780059814453,127.75 255.47300720214844,127.54000091552734 C255.47300720214844,127.54000091552734 255.4739990234375,127.53900146484375 255.4739990234375,127.53900146484375 C255.802001953125,126.81300354003906 256.1300048828125,126.08899688720703 256.4830017089844,125.3740005493164 C256.4830017089844,125.3740005493164 257.30999755859375,123.68199920654297 257.30999755859375,123.68199920654297 C259.4540100097656,119.4010009765625 261.98199462890625,115.33000183105469 264.864013671875,111.5199966430664 C265.1260070800781,111.15599822998047 265.4150085449219,110.77899932861328 265.7049865722656,110.41600036621094 C265.7049865722656,110.41600036621094 265.9939880371094,110.03800201416016 265.9939880371094,110.03800201416016 C266.0539855957031,109.95600128173828 266.1189880371094,109.8759994506836 266.18701171875,109.80000305175781 C266.18701171875,109.80000305175781 266.656005859375,109.21299743652344 266.656005859375,109.21299743652344 C266.656005859375,109.21299743652344 267.09698486328125,108.68199920654297 267.09698486328125,108.68199920654297 C267.09698486328125,108.68199920654297 267.5379943847656,108.1510009765625 267.5379943847656,108.1510009765625 C267.85101318359375,107.7699966430664 268.1719970703125,107.40499877929688 268.4949951171875,107.03700256347656 C268.4949951171875,107.03700256347656 268.5,107.03199768066406 268.5,107.03199768066406 C268.60198974609375,106.91600036621094 268.7040100097656,106.80000305175781 268.8059997558594,106.68299865722656 C268.8059997558594,106.68299865722656 269.7850036621094,105.59300231933594 269.7850036621094,105.59300231933594 C270.0450134277344,105.3010025024414 270.3110046386719,105.01599884033203 270.5790100097656,104.72799682617188 C270.5790100097656,104.72799682617188 270.5790100097656,104.72699737548828 270.5790100097656,104.72699737548828 C270.7090148925781,104.58799743652344 270.8399963378906,104.447998046875 270.9700012207031,104.30599975585938 C270.9700012207031,104.30599975585938 271.7699890136719,103.49600219726562 271.7699890136719,103.49600219726562 C271.7699890136719,103.49600219726562 272.5559997558594,102.6989974975586 272.5559997558594,102.6989974975586 C272.5559997558594,102.6989974975586 273.34100341796875,101.94400024414062 273.34100341796875,101.94400024414062 C273.34100341796875,101.94400024414062 274.47198486328125,100.85399627685547 274.47198486328125,100.85399627685547 C274.47198486328125,100.85399627685547 275.8500061035156,99.58100128173828 275.8500061035156,99.58100128173828 C276.49798583984375,99.00800323486328 277.14599609375,98.4489974975586 277.8070068359375,97.91799926757812 C277.9169921875,97.81500244140625 278.031005859375,97.7229995727539 278.1440124511719,97.63300323486328 C278.2170104980469,97.5739974975586 278.28900146484375,97.51699829101562 278.3590087890625,97.45600128173828 C278.3590087890625,97.45600128173828 279.11700439453125,96.8550033569336 279.11700439453125,96.8550033569336 C279.4200134277344,96.60399627685547 279.73699951171875,96.36599731445312 280.0539855957031,96.12899780273438 C280.0539855957031,96.12899780273438 280.99200439453125,95.42900085449219 280.99200439453125,95.42900085449219 C280.99200439453125,95.42900085449219 281.9840087890625,94.71700286865234 281.9840087890625,94.71700286865234 C281.9840087890625,94.71700286865234 282.7829895019531,94.14299774169922 282.7829895019531,94.14299774169922 C282.7829895019531,94.14299774169922 283.63800048828125,93.55699920654297 283.63800048828125,93.55699920654297 C284.45098876953125,92.99700164794922 285.27801513671875,92.4800033569336 286.1189880371094,91.96299743652344 C290.70599365234375,89.03800201416016 295.6499938964844,86.73400115966797 300.8269958496094,85.11299896240234 C304.8689880371094,83.88899993896484 309.0270080566406,83.10099792480469 313.2330017089844,82.76399993896484 C313.74798583984375,82.74800109863281 314.239013671875,82.53900146484375 314.6109924316406,82.177001953125 C314.7969970703125,81.98999786376953 314.9419860839844,81.76699829101562 315.03900146484375,81.5199966430664 C315.52899169921875,80.1520004272461 316.2019958496094,78.85900115966797 317.0369873046875,77.67500305175781 C319.85699462890625,74.39299774169922 323.1520080566406,71.56500244140625 326.80999755859375,69.28700256347656 C330.32501220703125,66.89700317382812 331.635009765625,64.28299713134766 329.9670104980469,59.31999969482422 C329.45001220703125,57.82699966430664 328.9219970703125,56.36199951171875 328.3900146484375,54.88600158691406 C328.3900146484375,54.88600158691406 328.3890075683594,54.8849983215332 328.3890075683594,54.8849983215332 C328.0840148925781,54.03900146484375 327.77801513671875,53.191001892089844 327.47198486328125,52.33000183105469 C325.4460144042969,46.26300048828125 322.1510009765625,44.08300018310547 315.89300537109375,44.654998779296875 C314.1390075683594,44.797000885009766 312.385986328125,44.948001861572266 310.63299560546875,45.099998474121094 C304.7969970703125,45.60300064086914 298.9630126953125,46.10499954223633 293.0799865722656,46.277000427246094 C290.322998046875,46.34700012207031 286.864013671875,45.67599868774414 284.8919982910156,43.94200134277344 C281.718994140625,41.14699935913086 278.3970031738281,39.92900085449219 274.9169921875,39.92900085449219 C272.9849853515625,39.92900085449219 271.0039978027344,40.30400085449219 268.97198486328125,40.99300003051758" fill-opacity="1">
 </path>
 <path fill="#ffffff" clip-rule="nonzero" d=" M173.656005859375,85.89399719238281 C166.2740020751953,87.95500183105469 159.2220001220703,91.08100128173828 152.71800231933594,95.177001953125 C151.82200622558594,95.61799621582031 150.86399841308594,95.91500091552734 149.87899780273438,96.05799865722656 C144.18600463867188,97.0790023803711 138.7270050048828,98.93800354003906 134.48199462890625,103.0479965209961 C131.54600524902344,106.15499877929688 129.11300659179688,109.71199798583984 127.27200317382812,113.58799743652344 C125.58200073242188,116.76899719238281 123.61699676513672,119.79100036621094 121.4000015258789,122.61900329589844 C121.08999633789062,123.01000213623047 120.75900268554688,123.38099670410156 120.42900085449219,123.7509994506836 C120.02799987792969,124.2020034790039 119.62699890136719,124.6520004272461 119.26399993896484,125.13600158691406 C119.26399993896484,125.13600158691406 119.05699920654297,125.44300079345703 119.05699920654297,125.44300079345703 C119.05699920654297,125.44300079345703 118.93299865722656,125.68099975585938 118.93299865722656,125.68099975585938 C118.73600006103516,126.0790023803711 118.63500213623047,126.51899719238281 118.63999938964844,126.96399688720703 C118.64399719238281,127.40899658203125 118.75299835205078,127.84700012207031 118.95800018310547,128.24099731445312 C119.16300201416016,128.63499450683594 119.45800018310547,128.97300720214844 119.81800079345703,129.22799682617188 C120.1780014038086,129.48300170898438 120.59300231933594,129.6479949951172 121.02799987792969,129.70700073242188 C121.02799987792969,129.70700073242188 121.38700103759766,129.70700073242188 121.38700103759766,129.70700073242188 C121.69200134277344,129.71600341796875 121.99700164794922,129.68600463867188 122.2959976196289,129.6219940185547 C127.71299743652344,128.47999572753906 132.7969970703125,126.08899688720703 137.156005859375,122.63300323486328 C139.2830047607422,120.94400024414062 141.22000122070312,119.02200317382812 142.93099975585938,116.9020004272461 C144.66200256347656,114.7979965209961 145.89999389648438,113.10299682617188 147.031005859375,111.55500030517578 C149.39599609375,108.31900024414062 151.29100036621094,105.7249984741211 156.23300170898438,101.38400268554688 C158.8459930419922,99.22899627685547 161.7010040283203,97.39399719238281 164.73800659179688,95.91899871826172 C171.98800659179688,92.47899627685547 180.16200256347656,90.11599731445312 188.281005859375,91.0250015258789 C192.2989959716797,91.4209976196289 196.17599487304688,92.73100280761719 199.62600708007812,94.85600280761719 C205.94500732421875,98.86599731445312 210.4510040283203,105.23999786376953 212.1699981689453,112.59600067138672 C214.4709930419922,122.77300262451172 210.79100036621094,134.6840057373047 202.7270050048828,142.91799926757812 C201.89999389648438,143.77099609375 201.03199768066406,144.5800018310547 200.14999389648438,145.3489990234375 C189.218994140625,154.72999572753906 174.33200073242188,156.4080047607422 158.7969970703125,157.4010009765625 C140.46099853515625,158.40899658203125 122.07599639892578,158.01499938964844 103.7979965209961,156.22500610351562 C101.37200164794922,156.0019989013672 98.91799926757812,155.73699951171875 96.31300354003906,155.4429931640625 C82.52899932861328,153.8780059814453 66.9800033569336,152.11599731445312 54.367000579833984,161.25900268554688 C43.62900161743164,169.05999755859375 38.06100082397461,182.95399475097656 40.81800079345703,195.0469970703125 C43.257999420166016,205.69900512695312 51.845001220703125,214.8990020751953 63.3129997253418,219.05099487304688 C68.44200134277344,220.88699340820312 73.8499984741211,221.7899932861328 79.28900146484375,221.72000122070312 C79.28900146484375,221.72000122070312 80.81900024414062,221.72000122070312 80.81900024414062,221.72000122070312 C86.82599639892578,221.4810028076172 92.83200073242188,220.7550048828125 98.81900024414062,220.031005859375 C99.48200225830078,219.9510040283203 100.14399719238281,219.87100219726562 100.80699920654297,219.79200744628906 C104.4000015258789,219.35400390625 107.99299621582031,218.88699340820312 111.58599853515625,218.39300537109375 C111.58599853515625,218.39300537109375 116.08000183105469,217.79299926757812 116.08000183105469,217.79299926757812 C116.697998046875,217.70799255371094 117.31700134277344,217.6060028076172 117.93699645996094,217.5050048828125 C117.93699645996094,217.5050048828125 117.93800354003906,217.5050048828125 117.93800354003906,217.5050048828125 C119.25499725341797,217.2899932861328 120.57599639892578,217.0749969482422 121.89700317382812,217.00900268554688 C121.89700317382812,217.00900268554688 121.8280029296875,217.052001953125 121.8280029296875,217.052001953125 C124.26699829101562,216.94000244140625 127.34100341796875,217.39999389648438 128.91299438476562,219.70700073242188 C131.53500366210938,224.30799865722656 128.61900329589844,227.31700134277344 125.81300354003906,230.21099853515625 C125.66899871826172,230.35899353027344 125.5260009765625,230.50599670410156 125.38400268554688,230.6540069580078 C124.69499969482422,231.35299682617188 124.00599670410156,232.05099487304688 123.2750015258789,232.69400024414062 C115.73600006103516,239.66700744628906 105.79100036621094,243.34300231933594 95.59600067138672,242.927001953125 C91.37799835205078,242.7449951171875 85.9469985961914,242.60699462890625 82.41899871826172,249.75 C82.41899871826172,249.75 73.30699920654297,274.9960021972656 73.30699920654297,274.9960021972656 C71.00499725341797,280.9939880371094 73.95500183105469,287.4800109863281 82.26699829101562,287.9830017089844 C82.26699829101562,287.9830017089844 91.70899963378906,287.9830017089844 91.70899963378906,287.9830017089844 C92.85399627685547,287.8280029296875 93.90399932861328,287.2569885253906 94.66500091552734,286.375 C95.42500305175781,285.4930114746094 95.84500122070312,284.3599853515625 95.84500122070312,283.18798828125 C95.83499908447266,282.1809997558594 95.51200103759766,281.2030029296875 94.91999816894531,280.39300537109375 C94.91999816894531,280.39300537109375 94.53500366210938,279.9590148925781 94.53500366210938,279.9590148925781 C94.53500366210938,279.9590148925781 94.40499877929688,279.81500244140625 94.40499877929688,279.81500244140625 C94.0479965209961,279.4179992675781 93.69499969482422,279.0220031738281 93.36299896240234,278.5610046386719 C92.81199645996094,277.9070129394531 92.31900024414062,277.20599365234375 91.88800048828125,276.4639892578125 C90.552001953125,274.20001220703125 89.93199920654297,271.57598876953125 90.11000061035156,268.9429931640625 C90.14900207519531,268.47198486328125 90.22200012207031,268.0050048828125 90.33000183105469,267.5450134277344 C90.81300354003906,265.239013671875 91.5979995727539,262.4989929199219 93.63899993896484,260.96099853515625 C94.95700073242188,259.9620056152344 96.52200317382812,259.3529968261719 98.16000366210938,259.20001220703125 C98.16000366210938,259.20001220703125 98.53199768066406,259.20001220703125 98.53199768066406,259.20001220703125 C101.7300033569336,259.0050048828125 104.91400146484375,258.7380065917969 108.07099914550781,258.3190002441406 C131.50100708007812,255.52099609375 154.32000732421875,248.83900451660156 175.61399841308594,238.53799438476562 C179.74899291992188,236.56700134277344 183.73300170898438,234.343994140625 187.6750030517578,232.07899475097656 C192.61000061035156,229.21299743652344 201.38999938964844,224.92100524902344 206.97300720214844,223.5229949951172 C215.9600067138672,220.7969970703125 227.24899291992188,220.2530059814453 232.77699279785156,221.76300048828125 C238.33900451660156,223.44700622558594 243.1219940185547,227.09800720214844 246.25799560546875,232.052001953125 C248.6540069580078,235.89599609375 249.92599487304688,240.35000610351562 249.92599487304688,244.8979949951172 C249.92599487304688,249.4459991455078 248.6540069580078,253.9010009765625 246.25799560546875,257.7449951171875 C245.6269989013672,258.7919921875 244.93699645996094,259.8009948730469 244.19000244140625,260.7659912109375 C242.97799682617188,262.375 242.16000366210938,264.25201416015625 241.80599975585938,266.2449951171875 C241.18299865722656,269.42498779296875 241.4499969482422,272.7179870605469 242.5780029296875,275.7510070800781 C243.91000366210938,279.5530090332031 246.44500732421875,282.802001953125 249.78700256347656,284.99200439453125 C252.23500061035156,286.5899963378906 255.01300048828125,287.593994140625 257.906005859375,287.9280090332031 C257.906005859375,287.9280090332031 270.9179992675781,287.9280090332031 270.9179992675781,287.9280090332031 C271.7090148925781,287.82501220703125 272.4599914550781,287.5119934082031 273.093994140625,287.02099609375 C273.7279968261719,286.5299987792969 274.2229919433594,285.8800048828125 274.52899169921875,285.13299560546875 C274.77398681640625,284.5539855957031 274.9010009765625,283.92999267578125 274.9020080566406,283.29998779296875 C274.9020080566406,282.281005859375 274.5679931640625,281.2900085449219 273.95098876953125,280.4849853515625 C273.3340148925781,279.67999267578125 272.47100830078125,279.1059875488281 271.49700927734375,278.8550109863281 C271.49700927734375,278.8550109863281 268.0920104980469,278.00299072265625 268.0920104980469,278.00299072265625 C261.0069885253906,276.3810119628906 258.6780090332031,269.0409851074219 262.5780029296875,263.2250061035156 C269.27801513671875,252.23699951171875 281.1319885253906,243.29200744628906 292.656005859375,238.88800048828125 C307.5840148925781,233.1840057373047 323.3810119628906,225.03399658203125 334.71099853515625,202.9320068359375 C340.156005859375,191.60899353027344 342.4440002441406,180.63499450683594 341.6029968261719,165.60699462890625 C341.5360107421875,163.37899780273438 341.86700439453125,161.15699768066406 342.5820007324219,159.0489959716797 C343.4049987792969,156.61399841308594 344.75799560546875,154.39999389648438 346.5400085449219,152.5679931640625 C348.322998046875,150.73599243164062 350.489013671875,149.33299255371094 352.8789978027344,148.4669952392578 C355.1199951171875,147.59800720214844 358.7720031738281,147.0500030517578 362.3580017089844,146.51300048828125 C363.7340087890625,146.30599975585938 365.10101318359375,146.1020050048828 366.3739929199219,145.88099670410156 C371.5429992675781,145.35000610351562 373.2659912109375,144.0780029296875 374.4649963378906,138.89199829101562 C374.4649963378906,138.89199829101562 376.2569885253906,130.99200439453125 376.2569885253906,130.99200439453125 C377.7869873046875,123.83499908447266 375.0719909667969,120.5780029296875 370.0539855957031,118.10399627685547 C370.0539855957031,118.10399627685547 349.0190124511719,106.83599853515625 349.0190124511719,106.83599853515625 C346.3659973144531,105.35299682617188 344.26800537109375,103.02400207519531 343.0509948730469,100.20999908447266 C342.218994140625,97.31500244140625 340.6130065917969,94.71099853515625 338.4110107421875,92.68499755859375 C336.2090148925781,90.65899658203125 333.49798583984375,89.29100036621094 330.57598876953125,88.73300170898438 C321.3059997558594,86.47699737548828 311.6099853515625,86.76100158691406 302.4840087890625,89.55699920654297 C284.71600341796875,95.54100036621094 270.5870056152344,108.51399993896484 261.9309997558594,125.69499969482422 C260.2749938964844,129.00799560546875 258.7820129394531,132.38600158691406 257.28900146484375,135.76199340820312 C255.50100708007812,139.8070068359375 253.71400451660156,143.8509979248047 251.6479949951172,147.7830047607422 C246.2989959716797,157.9600067138672 240.343994140625,166.4029998779297 230.28199768066406,171.5469970703125 C230.28199768066406,171.5469970703125 230.1300048828125,171.6320037841797 230.1300048828125,171.6320037841797 C215.39500427246094,179.9080047607422 201.2519989013672,182.5500030517578 185.00100708007812,185.38800048828125 C161.77200317382812,189.8719940185547 139.0240020751953,196.61900329589844 117.0719985961914,205.5330047607422 C117.0719985961914,205.5330047607422 111.88899993896484,207.6020050048828 111.88899993896484,207.6020050048828 C106.15499877929688,209.95199584960938 100.23999786376953,211.82200622558594 94.2040023803711,213.1929931640625 C84.04499816894531,215.62600708007812 74.90599822998047,216.43600463867188 65.4229965209961,213.01100158691406 C55.93899917602539,209.58599853515625 48.97800064086914,202.16200256347656 47.020999908447266,193.62100219726562 C44.814998626708984,184.031005859375 49.36399841308594,172.9029998779297 58.04800033569336,166.59800720214844 C68.66799926757812,158.9010009765625 82.31800079345703,160.44500732421875 95.52799987792969,161.94000244140625 C95.52799987792969,161.94000244140625 95.55500030517578,161.9429931640625 95.55500030517578,161.9429931640625 C95.55500030517578,161.9429931640625 96.14299774169922,162.00900268554688 96.14299774169922,162.00900268554688 C98.49400329589844,162.26800537109375 100.90299987792969,162.5330047607422 103.21900177001953,162.74000549316406 C121.80799865722656,164.5659942626953 140.5070037841797,164.968994140625 159.15499877929688,163.9429931640625 C175.84800720214844,162.86700439453125 191.8520050048828,161.02000427246094 204.28500366210938,150.35400390625 C205.31900024414062,149.45899963378906 206.3249969482422,148.5240020751953 207.2760009765625,147.5590057373047 C216.9250030517578,137.63299560546875 221.2259979248047,123.69599914550781 218.39999389648438,111.21199798583984 C217.0850067138672,105.41200256347656 214.322998046875,100.052001953125 210.37899780273438,95.64600372314453 C206.43600463867188,91.23999786376953 201.44200134277344,87.93599700927734 195.8769989013672,86.0479965209961 C193.9340057373047,85.43000030517578 191.9409942626953,84.98500061035156 189.9219970703125,84.72100067138672 C188.2050018310547,84.50800323486328 186.4810028076172,84.4020004272461 184.75799560546875,84.4020004272461 C181.01600646972656,84.4020004272461 177.28399658203125,84.9020004272461 173.656005859375,85.89399719238281" fill-opacity="1">
 </path>
 <path fill="#ffffff" clip-rule="nonzero" d=" M359.1600036621094,151.68099975585938 C357.1000061035156,151.91799926757812 355.1099853515625,152.5850067138672 353.3160095214844,153.63800048828125 C351.2449951171875,154.81100463867188 349.5299987792969,156.53500366210938 348.35699462890625,158.62399291992188 C347.1830139160156,160.71400451660156 346.59600830078125,163.08799743652344 346.6579895019531,165.49200439453125 C346.6579895019531,165.49200439453125 346.6579895019531,165.64700317382812 346.6579895019531,165.64700317382812 C347.7049865722656,180.84300231933594 345.87200927734375,193.05999755859375 339.6969909667969,205.57200622558594 C339.6969909667969,205.57200622558594 339.6969909667969,205.6840057373047 339.6969909667969,205.6840057373047 C336.135009765625,213.08700561523438 331.2080078125,219.7310028076172 325.1820068359375,225.2550048828125 C325.1629943847656,225.2740020751953 325.0660095214844,225.3419952392578 324.93798828125,225.43099975585938 C324.69000244140625,225.60400390625 324.32598876953125,225.85800170898438 324.1889953613281,225.99600219726562 C323.8999938964844,226.3000030517578 323.6910095214844,226.6719970703125 323.58099365234375,227.07899475097656 C323.47100830078125,227.48599243164062 323.4630126953125,227.9149932861328 323.5589904785156,228.3260040283203 C323.656005859375,228.73699951171875 323.85198974609375,229.11599731445312 324.1310119628906,229.42999267578125 C324.40899658203125,229.7429962158203 324.760986328125,229.9810028076172 325.15399169921875,230.1199951171875 C329.6719970703125,231.1649932861328 334.3190002441406,231.51300048828125 338.9389953613281,231.1540069580078 C344.8330078125,230.94400024414062 350.67401123046875,229.93800354003906 356.3070068359375,228.16299438476562 C357.0979919433594,227.95899963378906 357.8689880371094,227.72999572753906 358.63299560546875,227.5030059814453 C358.63299560546875,227.5030059814453 358.6340026855469,227.5030059814453 358.6340026855469,227.5030059814453 C360.79998779296875,226.86000061035156 362.90899658203125,226.23399353027344 365.25299072265625,226.23399353027344 C368.3059997558594,226.18800354003906 371.33099365234375,226.822998046875 374.1159973144531,228.09300231933594 C377.41900634765625,229.66400146484375 380.2669982910156,232.0709991455078 382.385986328125,235.08299255371094 C385.2950134277344,238.7030029296875 388.3689880371094,239.27699279785156 392.18701171875,237.2220001220703 C392.18701171875,237.2220001220703 396.3500061035156,235.18099975585938 398.2799987792969,233.96400451660156 C404.6619873046875,230.1060028076172 405.1860046386719,225.81399536132812 403.2560119628906,220.4739990234375 C403.10400390625,219.93099975585938 402.9530029296875,219.38999938964844 402.8009948730469,218.8489990234375 C401.02099609375,212.4969940185547 399.2749938964844,206.27000427246094 398.6659851074219,199.68600463867188 C398.4129943847656,197.31700134277344 398.9360046386719,194.92999267578125 400.15399169921875,192.89199829101562 C401.33099365234375,190.4969940185547 401.8819885253906,187.83599853515625 401.7539978027344,185.16299438476562 C401.62701416015625,182.49000549316406 400.8240051269531,179.89500427246094 399.42401123046875,177.62600708007812 C395.6189880371094,169.97999572753906 386.4110107421875,157.72000122070312 367.6510009765625,152.88400268554688 C367.6510009765625,152.88400268554688 367.46600341796875,152.83200073242188 367.46600341796875,152.83200073242188 C364.5140075683594,152.03500366210938 362.8760070800781,151.593994140625 360.8269958496094,151.593994140625 C360.3070068359375,151.593994140625 359.760986328125,151.6230010986328 359.1600036621094,151.68099975585938" fill-opacity="1">
 </path>
 <path fill="#ffffff" clip-rule="nonzero" d=" M312.1210021972656,235.6269989013672 C312.1210021972656,235.6269989013672 311.5690002441406,235.947998046875 311.5690002441406,235.947998046875 C311.5690002441406,235.947998046875 311.0320129394531,236.24200439453125 311.0320129394531,236.24200439453125 C311.0320129394531,236.24200439453125 310.7279968261719,236.41000366210938 310.7279968261719,236.41000366210938 C310.7279968261719,236.41000366210938 310.6180114746094,236.41000366210938 310.6180114746094,236.41000366210938 C310.1629943847656,236.66099548339844 309.7080078125,236.91299438476562 309.239990234375,237.1510009765625 C309.239990234375,237.1510009765625 309.0329895019531,237.26199340820312 309.0329895019531,237.26199340820312 C309.0329895019531,237.26199340820312 308.3710021972656,237.59800720214844 308.3710021972656,237.59800720214844 C307.8479919433594,237.89199829101562 307.2959899902344,238.17100524902344 306.7590026855469,238.43699645996094 C306.7590026855469,238.43699645996094 305.1180114746094,239.26199340820312 305.1180114746094,239.26199340820312 C305.1180114746094,239.26199340820312 303.49200439453125,240.04400634765625 303.49200439453125,240.04400634765625 C303.36700439453125,240.10899353027344 303.2380065917969,240.1649932861328 303.1059875488281,240.21200561523438 C303.1059875488281,240.21200561523438 301.0379943847656,241.1490020751953 301.0379943847656,241.1490020751953 C301.0379943847656,241.1490020751953 298.9429931640625,242.0850067138672 298.9429931640625,242.0850067138672 C297.5369873046875,242.68699645996094 296.1029968261719,243.2740020751953 294.6419982910156,243.86099243164062 C294.6419982910156,243.86099243164062 294.5459899902344,243.86099243164062 294.5459899902344,243.86099243164062 C293.635986328125,244.23800659179688 292.7130126953125,244.6300048828125 291.78900146484375,245.06300354003906 C291.78900146484375,245.06300354003906 290.85198974609375,245.49600219726562 290.85198974609375,245.49600219726562 C290.85198974609375,245.49600219726562 290.38299560546875,245.73399353027344 290.38299560546875,245.73399353027344 C290.0450134277344,245.8979949951172 289.7560119628906,246.14999389648438 289.5450134277344,246.46400451660156 C289.3340148925781,246.7790069580078 289.2090148925781,247.1439971923828 289.1820068359375,247.5229949951172 C289.1549987792969,247.90199279785156 289.2279968261719,248.28199768066406 289.39300537109375,248.6230010986328 C289.5580139160156,248.96499633789062 289.8089904785156,249.25599670410156 290.1210021972656,249.4669952392578 C299.3840026855469,255.81300354003906 326.26300048828125,274.2539978027344 340.1579895019531,283.885986328125 C345.7090148925781,287.6510009765625 352.3869934082031,289.322998046875 359.02801513671875,288.6109924316406 C359.68701171875,288.52301025390625 360.31201171875,288.26300048828125 360.84100341796875,287.8559875488281 C361.3699951171875,287.447998046875 361.7850036621094,286.9079895019531 362.0450134277344,286.28900146484375 C362.3059997558594,285.66900634765625 362.4020080566406,284.9909973144531 362.32501220703125,284.3219909667969 C362.24798583984375,283.65301513671875 362,283.0159912109375 361.6059875488281,282.4739990234375 C361.1789855957031,281.8760070800781 360.64599609375,281.364013671875 360.0350036621094,280.9639892578125 C359.5509948730469,280.60699462890625 359.04901123046875,280.2760009765625 358.5320129394531,279.97100830078125 C346.802001953125,273.218994140625 338.6549987792969,266.9410095214844 330.0950012207031,256.2049865722656 C326.26300048828125,251.39599609375 321.60400390625,245.30099487304688 317.468994140625,239.70899963378906 C317.468994140625,239.70899963378906 316.5450134277344,238.47900390625 316.5450134277344,238.47900390625 C316.5450134277344,238.47900390625 314.87799072265625,236.21400451660156 314.87799072265625,236.21400451660156 C314.56500244140625,235.79600524902344 314.1130065917969,235.5070037841797 313.60699462890625,235.3990020751953 C313.46099853515625,235.36700439453125 313.31298828125,235.3520050048828 313.1650085449219,235.3520050048828 C312.802001953125,235.3520050048828 312.4419860839844,235.44500732421875 312.1210021972656,235.6269989013672" fill-opacity="1">
 </path>
 <path fill="#ffffff" clip-rule="nonzero" d=" M155.6959991455078,252.46499633789062 C155.6959991455078,252.46499633789062 154.7449951171875,252.82899475097656 154.7449951171875,252.82899475097656 C154.7449951171875,252.82899475097656 154.41400146484375,252.95399475097656 154.41400146484375,252.95399475097656 C154.41400146484375,252.95399475097656 152.4980010986328,253.6529998779297 152.4980010986328,253.6529998779297 C152.4980010986328,253.6529998779297 151.781005859375,253.91900634765625 151.781005859375,253.91900634765625 C151.781005859375,253.91900634765625 150.04400634765625,254.53399658203125 150.04400634765625,254.53399658203125 C150.04400634765625,254.53399658203125 148.29400634765625,255.12100219726562 148.29400634765625,255.12100219726562 C148.29400634765625,255.12100219726562 146.11599731445312,255.83399963378906 146.11599731445312,255.83399963378906 C146.11599731445312,255.83399963378906 145.5780029296875,256.00201416015625 145.5780029296875,256.00201416015625 C145.5780029296875,256.00201416015625 144.75100708007812,256.2539978027344 144.75100708007812,256.2539978027344 C144.75100708007812,256.2539978027344 142.76600646972656,256.8550109863281 142.76600646972656,256.8550109863281 C142.76600646972656,256.8550109863281 142.24200439453125,257.00799560546875 142.24200439453125,257.00799560546875 C142.24200439453125,257.00799560546875 142.14599609375,257.00799560546875 142.14599609375,257.00799560546875 C141.7899932861328,257.10699462890625 141.46499633789062,257.2969970703125 141.20199584960938,257.5610046386719 C140.94000244140625,257.8240051269531 140.75,258.1520080566406 140.64999389648438,258.51300048828125 C140.5500030517578,258.87298583984375 140.54400634765625,259.2539978027344 140.6320037841797,259.61700439453125 C140.72000122070312,259.9809875488281 140.89999389648438,260.31500244140625 141.1529998779297,260.5870056152344 C143.86900329589844,264.0679931640625 156.7429962158203,276.21600341796875 164.40699768066406,283.135986328125 C168.6719970703125,286.96600341796875 174.25599670410156,288.92999267578125 179.94200134277344,288.60198974609375 C180.62100219726562,288.5669860839844 181.2969970703125,288.49700927734375 181.96800231933594,288.39300537109375 C182.3000030517578,288.343994140625 182.6269989013672,288.2690124511719 182.94700622558594,288.16900634765625 C183.61199951171875,287.9159851074219 184.1840057373047,287.4630126953125 184.58799743652344,286.8710021972656 C184.99200439453125,286.27899169921875 185.20799255371094,285.57598876953125 185.20799255371094,284.8559875488281 C185.21299743652344,284.6780090332031 185.19900512695312,284.5 185.16600036621094,284.32501220703125 C185.11700439453125,284.0769958496094 185.04800415039062,283.8340148925781 184.9600067138672,283.5979919433594 C184.80099487304688,283.25799560546875 184.61700439453125,282.92999267578125 184.4080047607422,282.6189880371094 C182.8979949951172,280.6579895019531 179.6490020751953,278.2460021972656 176.8249969482422,276.14898681640625 C174.95700073242188,274.76300048828125 173.27499389648438,273.5140075683594 172.40199279785156,272.6239929199219 C167.26100158691406,267.8290100097656 160.86500549316406,257.7070007324219 158.21800231933594,253.36000061035156 C157.96299743652344,252.94000244140625 157.57200622558594,252.6219940185547 157.11300659179688,252.45899963378906 C156.88600158691406,252.3780059814453 156.64999389648438,252.33799743652344 156.41299438476562,252.33799743652344 C156.1699981689453,252.33799743652344 155.92799377441406,252.3800048828125 155.6959991455078,252.46499633789062" fill-opacity="1">
 </path>
 </clipPath>
 </defs>
 <g clip-path="url(#__lottie_element_2)"><g clip-path="url(#__lottie_element_4)" transform="matrix(1,0,0,1,0,0)" opacity="1" style="display: block;">
 <g clip-path="url(#__lottie_element_5)">
 <g transform="matrix(0.18166999518871307,0,0,0.18166999518871307,221.99966430664062,294.4859924316406)" opacity="1" style="display: block;"><g opacity="1" transform="matrix(1,0,0,1,0,0)"><path stroke-linecap="butt" stroke-linejoin="miter" fill-opacity="0" stroke-miterlimit="4" stroke="rgb(255,255,255)" stroke-opacity="1" stroke-width="35" d=" M-1175,-276 C-1175,-276 974,825 974,825"></path></g></g><g transform="matrix(0.18166999518871307,0,0,0.18166999518871307,221.99966430664062,279.22601318359375)" opacity="1" style="display: block;"><g opacity="1" transform="matrix(1,0,0,1,0,0)"><path stroke-linecap="butt" stroke-linejoin="miter" fill-opacity="0" stroke-miterlimit="4" stroke="rgb(252,255,255)" stroke-opacity="1" stroke-width="35" d=" M-1175,-276 C-1175,-276 974,825 974,825"></path></g></g><g transform="matrix(0.18166999518871307,0,0,0.18166999518871307,221.99966430664062,264.8739929199219)" opacity="1" style="display: block;"><g opacity="1" transform="matrix(1,0,0,1,0,0)"><path stroke-linecap="butt" stroke-linejoin="miter" fill-opacity="0" stroke-miterlimit="4" stroke="rgb(250,255,255)" stroke-opacity="1" stroke-width="35" d=" M-1175,-276 C-1175,-276 974,825 974,825"></path></g></g><g transform="matrix(0.18166999518871307,0,0,0.18166999518871307,221.99966430664062,250.52200317382812)" opacity="1" style="display: block;"><g opacity="1" transform="matrix(1,0,0,1,0,0)"><path stroke-linecap="butt" stroke-linejoin="miter" fill-opacity="0" stroke-miterlimit="4" stroke="rgb(247,255,255)" stroke-opacity="1" stroke-width="35" d=" M-1175,-276 C-1175,-276 974,825 974,825"></path></g></g><g transform="matrix(0.18166999518871307,0,0,0.18166999518871307,221.99966430664062,236.17001342773438)" opacity="1" style="display: block;"><g opacity="1" transform="matrix(1,0,0,1,0,0)"><path stroke-linecap="butt" stroke-linejoin="miter" fill-opacity="0" stroke-miterlimit="4" stroke="rgb(245,254,254)" stroke-opacity="1" stroke-width="35" d=" M-1175,-276 C-1175,-276 974,825 974,825"></path></g></g><g transform="matrix(0.18166999518871307,0,0,0.18166999518871307,221.99966430664062,221.8179931640625)" opacity="1" style="display: block;"><g opacity="1" transform="matrix(1,0,0,1,0,0)"><path stroke-linecap="butt" stroke-linejoin="miter" fill-opacity="0" stroke-miterlimit="4" stroke="rgb(243,254,254)" stroke-opacity="1" stroke-width="35" d=" M-1175,-276 C-1175,-276 974,825 974,825"></path></g></g><g transform="matrix(0.18166999518871307,0,0,0.18166999518871307,221.99966430664062,207.46600341796875)" opacity="1" style="display: block;">
 <g opacity="1" transform="matrix(1,0,0,1,0,0)"><path stroke-linecap="butt" stroke-linejoin="miter" fill-opacity="0" stroke-miterlimit="4" stroke="rgb(241,254,254)" stroke-opacity="1" stroke-width="35" d=" M-1175,-276 C-1175,-276 974,825 974,825"></path></g></g><g transform="matrix(0.18166999518871307,0,0,0.18166999518871307,221.99966430664062,193.11399841308594)" opacity="1" style="display: block;">
 <g opacity="1" transform="matrix(1,0,0,1,0,0)"><path stroke-linecap="butt" stroke-linejoin="miter" fill-opacity="0" stroke-miterlimit="4" stroke="rgb(239,254,254)" stroke-opacity="1" stroke-width="35" d=" M-1175,-276 C-1175,-276 974,825 974,825"></path></g></g> <g transform="matrix(0.18166999518871307,0,0,0.18166999518871307,221.99966430664062,178.76300048828125)" opacity="1" style="display: block;"> 
 <g opacity="1" transform="matrix(1,0,0,1,0,0)"><path stroke-linecap="butt" stroke-linejoin="miter" fill-opacity="0" stroke-miterlimit="4" stroke="rgb(236,254,254)" stroke-opacity="1" stroke-width="35" d=" M-1175,-276 C-1175,-276 974,825 974,825"></path></g></g>
 <g transform="matrix(0.18166999518871307,0,0,0.18166999518871307,221.99966430664062,164.41099548339844)" opacity="1" style="display: block;">
 <g opacity="1" transform="matrix(1,0,0,1,0,0)"><path stroke-linecap="butt" stroke-linejoin="miter" fill-opacity="0" stroke-miterlimit="4" stroke="rgb(234,254,254)" stroke-opacity="1" stroke-width="35" d=" M-1175,-276 C-1175,-276 974,825 974,825"></path></g></g><g transform="matrix(0.18166999518871307,0,0,0.18166999518871307,221.99966430664062,150.0590057373047)" opacity="1" style="display: block;"><g opacity="1" transform="matrix(1,0,0,1,0,0)">
 <path stroke-linecap="butt" stroke-linejoin="miter" fill-opacity="0" stroke-miterlimit="4" stroke="rgb(232,254,254)" stroke-opacity="1" stroke-width="35" d=" M-1175,-276 C-1175,-276 974,825 974,825"></path></g></g><g transform="matrix(0.18166999518871307,0,0,0.18166999518871307,221.99966430664062,135.70700073242188)" opacity="1" style="display: block;"><g opacity="1" transform="matrix(1,0,0,1,0,0)"><path stroke-linecap="butt" stroke-linejoin="miter" fill-opacity="0" stroke-miterlimit="4" stroke="rgb(229,254,254)" stroke-opacity="1" stroke-width="35" d=" M-1175,-276 C-1175,-276 974,825 974,825"></path></g></g><g transform="matrix(0.18166999518871307,0,0,0.18166999518871307,221.99966430664062,121.35499572753906)" opacity="1" style="display: block;">
 <g opacity="1" transform="matrix(1,0,0,1,0,0)"><path stroke-linecap="butt" stroke-linejoin="miter" fill-opacity="0" stroke-miterlimit="4" stroke="rgb(227,254,254)" stroke-opacity="1" stroke-width="35" d=" M-1175,-276 C-1175,-276 974,825 974,825"></path></g></g><g transform="matrix(0.18166999518871307,0,0,0.18166999518871307,221.99966430664062,107.00300598144531)" opacity="1" style="display: block;">
 <g opacity="1" transform="matrix(1,0,0,1,0,0)"><path stroke-linecap="butt" stroke-linejoin="miter" fill-opacity="0" stroke-miterlimit="4" stroke="rgb(225,253,253)" stroke-opacity="1" stroke-width="35" d=" M-1175,-276 C-1175,-276 974,825 974,825"></path></g></g><g transform="matrix(0.18166999518871307,0,0,0.18166999518871307,221.99966430664062,92.6510009765625)" opacity="1" style="display: block;"><g opacity="1" transform="matrix(1,0,0,1,0,0)"><path stroke-linecap="butt" stroke-linejoin="miter" fill-opacity="0" stroke-miterlimit="4" stroke="rgb(223,253,253)" stroke-opacity="1" stroke-width="35" d=" M-1175,-276 C-1175,-276 974,825 974,825"></path></g></g><g transform="matrix(0.18166999518871307,0,0,0.18166999518871307,247.4336700439453,91.3800048828125)" opacity="1" style="display: block;"><g opacity="1" transform="matrix(1,0,0,1,0,0)">
 <path stroke-linecap="butt" stroke-linejoin="miter" fill-opacity="0" stroke-miterlimit="4" stroke="rgb(220,253,253)" stroke-opacity="1" stroke-width="35" d=" M-1175,-276 C-1175,-276 974,825 974,825"></path></g></g><g transform="matrix(0.18166999518871307,0,0,0.18166999518871307,247.4336700439453,77.02799987792969)" opacity="1" style="display: block;"><g opacity="1" transform="matrix(1,0,0,1,0,0)"><path stroke-linecap="butt" stroke-linejoin="miter" fill-opacity="0" stroke-miterlimit="4" stroke="rgb(218,253,253)" stroke-opacity="1" stroke-width="35" d=" M-1175,-276 C-1175,-276 974,825 974,825"></path></g></g><g style="display: block;" transform="matrix(0.18166999518871307,0,0,0.18166999518871307,247.4336700439453,62.676002502441406)" opacity="1">
 <g opacity="1" transform="matrix(1,0,0,1,0,0)"><path stroke-linecap="butt" stroke-linejoin="miter" fill-opacity="0" stroke-miterlimit="4" stroke="rgb(216,253,253)" stroke-opacity="1" stroke-width="35" d=" M-1175,-276 C-1175,-276 974,825 974,825"></path></g></g><g style="display: block;" transform="matrix(0.18166999518871307,0,0,0.18166999518871307,247.4336700439453,48.324005126953125)" opacity="1">
 <g opacity="1" transform="matrix(1,0,0,1,0,0)"><path stroke-linecap="butt" stroke-linejoin="miter" fill-opacity="0" stroke-miterlimit="4" stroke="rgb(214,253,253)" stroke-opacity="1" stroke-width="35" d=" M-1175,-276 C-1175,-276 974,825 974,825"></path></g></g><g style="display: block;" transform="matrix(0.18166999518871307,0,0,0.18166999518871307,247.4336700439453,33.97200012207031)" opacity="1">
 <g opacity="1" transform="matrix(1,0,0,1,0,0)"><path stroke-linecap="butt" stroke-linejoin="miter" fill-opacity="0" stroke-miterlimit="4" stroke="rgb(211,253,253)" stroke-opacity="1" stroke-width="35" d=" M-1175,-276 C-1175,-276 974,825 974,825"></path></g></g><g style="display: block;" transform="matrix(0.18166999518871307,0,0,0.18166999518871307,247.4336700439453,19.62000274658203)" opacity="1">
 <g opacity="1" transform="matrix(1,0,0,1,0,0)"><path stroke-linecap="butt" stroke-linejoin="miter" fill-opacity="0" stroke-miterlimit="4" stroke="rgb(209,253,253)" stroke-opacity="1" stroke-width="35" d=" M-1175,-276 C-1175,-276 974,825 974,825"></path></g></g><g style="display: block;" transform="matrix(0.18166999518871307,0,0,0.18166999518871307,247.4336700439453,5.450000762939453)" opacity="1">
 <g opacity="1" transform="matrix(1,0,0,1,0,0)"><path stroke-linecap="butt" stroke-linejoin="miter" fill-opacity="0" stroke-miterlimit="4" stroke="rgb(207,253,253)" stroke-opacity="1" stroke-width="35" d=" M-1175,-276 C-1175,-276 974,825 974,825"></path></g></g><g style="display: block;" transform="matrix(0.18166999518871307,0,0,0.18166999518871307,247.4336700439453,-9.083999633789062)" opacity="1">
 <g opacity="1" transform="matrix(1,0,0,1,0,0)"><path stroke-linecap="butt" stroke-linejoin="miter" fill-opacity="0" stroke-miterlimit="4" stroke="rgb(204,252,252)" stroke-opacity="1" stroke-width="35" d=" M-1175,-276 C-1175,-276 974,825 974,825"></path></g></g><g style="display: block;" transform="matrix(0.18166999518871307,0,0,0.18166999518871307,247.4336700439453,-23.253997802734375)" opacity="1"><g opacity="1" transform="matrix(1,0,0,1,0,0)"><path stroke-linecap="butt" stroke-linejoin="miter" fill-opacity="0" stroke-miterlimit="4" stroke="rgb(202,252,252)" stroke-opacity="1" stroke-width="35" d=" M-1175,-276 C-1175,-276 974,825 974,825">
 </path></g></g><g style="display: block;" transform="matrix(0.18166999518871307,0,0,0.18166999518871307,247.4336700439453,-37.7869987487793)" opacity="1"><g opacity="1" transform="matrix(1,0,0,1,0,0)"><path stroke-linecap="butt" stroke-linejoin="miter" fill-opacity="0" stroke-miterlimit="4" stroke="rgb(200,252,252)" stroke-opacity="1" stroke-width="35" d=" M-1175,-276 C-1175,-276 974,825 974,825"></path></g></g><g style="display: block;" transform="matrix(0.18166999518871307,0,0,0.18166999518871307,247.4336700439453,-51.9579963684082)" opacity="1"><g opacity="1" transform="matrix(1,0,0,1,0,0)"><path stroke-linecap="butt" stroke-linejoin="miter" fill-opacity="0" stroke-miterlimit="4" stroke="rgb(198,252,252)" stroke-opacity="1" stroke-width="35" d=" M-1175,-276 C-1175,-276 974,825 974,825">
 </path>
 </g>
 </g>
 </g>
 </g>
 </g>
 </svg>